<svg version="1.1" id="Layer_1" xmlns="http://www.w3.org/2000/svg" xmlns:xlink="http://www.w3.org/1999/xlink" x="0px" y="0px"
	 width="100%" viewBox="0 0 1000 1000" enable-background="new 0 0 1000 1000" xml:space="preserve">
<path fill="#11B3FE" opacity="1.000000" stroke="none" 
	d="
M590.000000,1001.000000 
	C393.333344,1001.000000 197.166672,1001.000000 1.000000,1001.000000 
	C1.000000,667.666687 1.000000,334.333344 1.000000,1.000000 
	C334.333344,1.000000 667.666687,1.000000 1001.000000,1.000000 
	C1001.000000,334.333344 1001.000000,667.666687 1001.000000,1001.000000 
	C864.166687,1001.000000 727.333313,1001.000000 590.000000,1001.000000 
M375.889801,866.651611 
	C375.801270,866.319824 375.596985,866.091492 374.951202,865.598755 
	C374.951202,865.598755 374.906281,865.109436 374.997559,864.346069 
	C375.070160,860.292236 371.549744,860.001099 369.029785,858.848450 
	C364.690948,856.863770 357.323425,857.662903 355.009949,860.012573 
	C355.009949,860.012573 355.110718,860.105652 354.349060,859.985413 
	C353.273804,860.717651 352.198517,861.449890 350.899567,862.652832 
	C350.576965,862.755432 350.254395,862.857971 349.211945,862.895874 
	C347.639099,863.239136 346.066284,863.582397 345.459534,863.714783 
	C342.623840,860.412292 340.100189,857.473145 337.565735,854.484619 
	C337.565735,854.484619 337.518463,854.466675 337.498230,853.839722 
	C336.986267,853.563293 336.474304,853.286865 335.432190,852.988953 
	C335.293915,852.878784 335.155609,852.768555 334.794434,852.257263 
	C334.547913,852.027405 334.261597,851.955078 333.993866,852.004456 
	C333.993866,852.004456 333.962402,852.065308 333.875977,851.344788 
	C329.528381,847.124084 324.325653,846.619507 320.996765,850.012329 
	C320.996765,850.012329 321.088379,850.091064 320.334290,849.965210 
	C319.255524,850.687134 318.176727,851.408997 317.014465,852.017212 
	C317.014465,852.017212 317.118988,852.111938 316.346069,851.984314 
	C311.560181,852.995911 304.147156,864.629028 304.013702,871.002441 
	C304.013702,871.002441 304.151672,871.128662 303.358063,871.250244 
	C302.907379,872.239075 302.075043,873.224060 302.065033,874.217346 
	C301.966248,884.007874 301.935822,893.800903 302.097443,903.589722 
	C302.115692,904.694946 303.435913,905.778625 304.016449,907.002441 
	C304.016449,907.002441 304.146515,906.871216 303.993805,907.688110 
	C305.461823,912.095093 306.854309,916.530396 308.485077,920.876282 
	C308.711426,921.479431 310.113892,921.641296 311.010498,922.006653 
	C311.010498,922.006653 310.987915,922.038208 311.059906,922.521362 
	C311.222382,922.842407 311.483154,923.014465 311.946045,923.023987 
	C311.946045,923.023987 311.955200,923.128296 311.941284,923.840332 
	C314.472198,928.091003 318.447876,929.644348 322.994690,929.983582 
	C322.994690,929.983582 323.145508,929.836243 323.162018,930.552429 
	C325.594238,933.158142 328.178436,935.267212 332.642578,933.086182 
	C333.061981,933.158081 333.481415,933.229919 334.100922,933.979248 
	C338.373230,937.898499 338.861908,942.556824 336.975311,948.905823 
	C335.615387,953.482361 333.937042,958.562012 338.008575,962.998779 
	C338.008575,962.998779 338.128174,962.877625 337.986237,963.676575 
	C338.986481,965.116821 339.986755,966.557068 341.005615,967.997986 
	C341.005615,967.997986 341.000214,968.016235 341.109009,968.523804 
	C341.400055,968.683472 341.691101,968.843140 342.000519,968.995178 
	C342.000519,968.995178 341.999115,969.014648 342.072876,969.735352 
	C346.456635,974.384521 354.969879,975.657837 361.603363,972.918091 
	C365.327820,971.379944 368.631439,969.793640 367.898743,964.895081 
	C367.898743,964.895081 367.848450,964.832214 368.578918,964.780518 
	C369.009918,963.479248 369.440887,962.178040 369.983582,960.997742 
	C369.983582,960.997742 369.857941,960.890869 370.614655,960.781311 
	C370.875824,960.587708 371.340027,960.420410 371.369019,960.196716 
	C372.892242,948.436951 374.378662,936.672424 375.969604,924.939697 
	C375.969604,924.939697 375.883270,924.878967 376.665039,924.738281 
	C377.107269,923.572388 377.926331,922.408630 377.933014,921.240234 
	C377.994659,910.457153 377.915955,899.673279 377.975128,889.008789 
	C377.975128,889.008789 377.867737,888.895081 378.654938,888.755493 
	C378.835388,883.052307 379.026886,877.349426 379.138580,871.644836 
	C379.141663,871.486389 378.289154,871.311157 377.997559,871.030457 
	C377.997559,871.030457 377.835144,871.135620 377.998108,870.384399 
	C377.287903,869.297363 376.577728,868.210266 376.000000,867.000000 
	C376.000000,867.000000 375.868774,867.124146 375.889801,866.651611 
M820.979126,175.112549 
	C817.845459,167.784363 815.224854,160.168945 811.353516,153.253738 
	C809.521545,149.981277 807.750977,147.230225 807.939697,143.361053 
	C808.327026,135.418106 808.412537,127.557983 804.109253,120.263306 
	C802.687561,117.853432 803.083130,114.412476 801.801575,111.869431 
	C799.874268,108.045120 797.823486,103.851807 794.660034,101.211189 
	C791.872681,98.884491 789.020630,97.072334 787.724609,93.493942 
	C785.876953,88.392456 781.200928,86.491425 776.704163,85.227585 
	C772.655945,84.089790 768.198914,83.946396 763.945251,84.082855 
	C749.257202,84.554047 734.584229,85.500626 719.895752,85.948219 
	C710.073486,86.247543 700.234192,86.078957 690.403748,85.990646 
	C678.381714,85.882645 666.350830,85.470108 655.184204,91.242058 
	C654.295044,91.701653 652.736328,91.223434 651.617737,90.821808 
	C645.680115,88.689812 636.461792,91.116402 633.398865,96.237679 
	C627.214966,106.577156 622.445068,117.338303 622.918518,129.909912 
	C623.344727,141.224747 623.186951,152.573074 622.906311,163.897186 
	C622.798767,168.236389 621.636841,172.549484 620.275513,177.158585 
	C617.381836,178.106964 614.332703,178.741119 611.631165,180.077881 
	C607.641541,182.051987 602.647766,183.631531 600.277466,186.948318 
	C591.947815,198.604126 600.018677,211.776382 612.610840,213.839600 
	C609.121460,217.749573 607.402039,222.137360 606.798706,227.534332 
	C605.897461,235.595947 603.237732,243.450989 602.159790,251.505493 
	C600.958740,260.480194 601.039551,269.622528 599.938049,278.615417 
	C598.150085,293.213623 599.914795,308.084564 594.358765,322.460602 
	C590.003357,333.730072 588.662659,346.127289 584.988647,357.708130 
	C581.408142,368.993988 576.565552,379.879486 572.203857,390.111847 
	C573.137329,385.662201 574.569946,381.249207 574.899902,376.755280 
	C575.578186,367.515808 575.506409,358.223755 576.043579,348.970764 
	C576.562683,340.028931 575.417969,331.848969 570.281921,323.977051 
	C567.341492,319.470245 562.998291,317.040497 559.825745,313.455383 
	C552.674500,305.374084 543.449524,305.294067 534.340271,304.037750 
	C524.605103,302.695068 514.847839,301.277405 505.052185,300.676605 
	C495.995697,300.121155 486.849121,300.178131 477.790497,300.741608 
	C467.661316,301.371643 457.605652,303.121918 447.480988,303.908142 
	C441.194550,304.396301 434.834961,303.864471 428.517456,304.072357 
	C426.290863,304.145599 423.725555,304.510712 421.956024,305.698059 
	C418.222961,308.202942 414.804077,311.218719 411.466248,314.255646 
	C409.099060,316.409454 406.181122,318.592255 405.093689,321.380249 
	C403.108856,326.468994 401.791443,331.955383 401.142181,337.389038 
	C400.495239,342.803009 401.209015,348.366455 400.915527,353.842377 
	C400.802155,355.957672 399.559662,358.012482 398.226715,359.618835 
	C397.861450,359.083679 397.244843,358.581940 397.168671,358.008392 
	C396.071381,349.747528 395.124390,341.466095 393.964355,333.214478 
	C393.535400,330.163300 392.508362,327.200073 391.994476,324.156189 
	C390.744873,316.754517 389.631653,309.329742 388.472748,301.912842 
	C387.943329,298.524475 387.779144,295.033295 386.833954,291.766815 
	C385.571991,287.405609 383.635864,283.244232 382.122498,278.950104 
	C378.338135,268.212006 375.118744,257.238220 370.657379,246.792633 
	C368.775146,242.385727 364.338623,239.069809 360.680908,234.813095 
	C363.096283,230.534241 364.801147,225.043091 361.945679,219.144180 
	C364.276733,219.092911 366.609161,219.075851 368.938629,218.983826 
	C375.428375,218.727463 382.383392,212.570801 383.872314,205.798279 
	C385.251282,199.525879 381.357422,191.722153 375.991058,188.403610 
	C369.923065,184.651184 363.368744,186.598206 357.017548,185.264816 
	C356.627747,184.526550 356.237946,183.788284 356.053986,182.237991 
	C355.717529,180.442856 355.381073,178.647705 354.992157,176.124847 
	C353.008484,170.134415 350.788147,164.209152 349.114838,158.133255 
	C347.738739,153.136566 346.363281,147.991730 346.120575,142.858978 
	C345.431366,128.284073 345.532318,113.672256 344.875763,99.095085 
	C344.632111,93.684853 342.085571,88.976860 336.855988,86.392441 
	C327.218811,81.629852 316.911346,84.009399 306.996094,84.322418 
	C291.588043,84.808846 276.232269,86.813057 260.838348,87.958923 
	C255.050735,88.389732 249.188248,87.882011 243.413086,88.397865 
	C232.485229,89.373962 221.613937,90.993950 210.683121,91.922050 
	C204.898880,92.413170 199.038727,91.983582 193.213165,92.020660 
	C185.194489,92.071693 178.320572,98.615929 176.904587,106.390556 
	C175.556366,113.793190 170.969498,120.702789 173.907288,128.698517 
	C174.036011,129.048859 173.618408,129.611938 173.429474,130.065170 
	C170.246124,137.702209 168.830322,145.621185 168.951492,153.926361 
	C169.136002,166.573502 168.971970,179.225723 168.173859,191.972473 
	C156.355164,193.907852 152.388611,201.862549 152.758621,212.001099 
	C145.157532,212.001099 138.081512,211.853531 131.014420,212.041550 
	C123.567085,212.239685 116.191864,220.082901 115.969543,227.639816 
	C115.691772,237.081680 122.360275,243.979324 130.351852,244.875366 
	C140.497208,246.012924 150.728592,246.383301 160.979019,248.009720 
	C159.972046,266.173553 162.489914,284.355896 159.292679,302.587372 
	C157.173416,314.671967 157.775955,327.222321 156.952713,339.550354 
	C156.506149,346.237640 155.627289,352.896118 154.935654,359.566803 
	C154.901779,359.893402 154.780701,360.209991 154.721436,360.535095 
	C153.142517,369.196014 151.243378,377.814850 150.092834,386.532440 
	C149.186523,393.399689 149.435165,400.411499 148.756882,407.318481 
	C147.685135,418.231873 146.272339,429.111908 144.993103,440.004791 
	C144.111633,447.510529 143.320053,455.029083 142.288849,462.514435 
	C141.330643,469.469879 139.059799,476.407318 139.180695,483.320953 
	C139.752640,516.032349 137.557938,548.747314 140.663940,581.486389 
	C142.133743,596.979187 142.186356,612.585571 144.817902,628.046814 
	C146.409241,637.396362 146.467117,647.021973 146.982712,656.536011 
	C147.804672,671.703613 145.312500,686.997742 148.979095,702.069824 
	C151.430725,712.147461 153.531815,722.310547 155.780273,732.437500 
	C156.870590,737.348083 157.717987,742.325623 159.073563,747.161133 
	C160.761200,753.181152 162.860153,759.085815 164.649292,765.696899 
	C160.206863,770.612671 157.544464,776.196106 159.493652,782.885437 
	C161.404144,789.441895 166.154633,794.016418 172.717819,794.804932 
	C188.256699,796.671753 203.892929,798.673523 219.505615,798.809753 
	C274.243073,799.287231 328.987427,799.065002 383.728516,798.898865 
	C389.192291,798.882263 393.563965,795.944031 396.615936,791.009705 
	C401.032196,783.869690 398.710846,777.467102 395.779510,770.610046 
	C397.160858,767.125488 399.020752,763.747742 399.827362,760.134949 
	C401.705261,751.723572 402.302124,742.957031 404.857513,734.784485 
	C407.733337,725.586975 408.210388,716.409668 407.994415,707.006958 
	C407.910370,703.346985 407.980713,699.683533 407.980713,696.021667 
	C407.980713,693.105347 407.980713,690.189087 407.980713,687.241394 
	C409.576416,687.116699 410.394928,686.996887 411.213409,686.996765 
	C460.648529,686.989380 510.083710,687.009155 559.518738,686.951355 
	C562.572632,686.947815 563.951782,687.727478 564.167114,691.102356 
	C564.392517,694.635132 565.142517,698.275513 566.424072,701.573181 
	C570.172852,711.219360 569.462402,721.477051 571.091248,731.398804 
	C572.187744,738.078491 573.971313,744.657532 575.694214,751.216736 
	C576.473755,754.184448 577.852722,756.994751 578.122131,759.929260 
	C568.420776,759.382690 560.690979,768.498718 560.953369,776.620972 
	C561.228638,785.142151 568.132263,792.826599 576.341003,792.981445 
	C614.199097,793.695618 652.081177,791.651123 689.933533,794.803040 
	C704.319763,796.000916 718.906738,794.555115 733.364136,795.186829 
	C751.956665,795.999268 770.506165,797.762390 789.084595,798.953491 
	C794.058655,799.272400 799.118347,798.561707 804.054321,799.099060 
	C811.854919,799.948181 819.607483,801.323730 827.336670,802.718811 
	C833.718872,803.870789 839.404907,802.392883 843.604614,797.687317 
	C847.563354,793.251892 849.338501,787.875793 847.279724,781.659119 
	C845.804565,777.204773 844.962280,772.540771 843.973572,767.112915 
	C843.929810,765.091248 843.886047,763.069519 844.027954,760.487610 
	C843.976074,760.297913 843.924194,760.108154 844.262451,759.244446 
	C844.844543,756.069580 845.511719,752.907532 845.993103,749.717468 
	C847.599915,739.068665 848.840637,728.353577 850.828430,717.777832 
	C851.869812,712.237061 854.504944,707.014099 855.844910,701.507568 
	C858.689697,689.817261 861.186462,678.041687 863.764282,666.287598 
	C864.603577,662.460693 865.388733,658.611877 865.953613,654.737305 
	C866.730591,649.407471 867.119263,644.019470 867.950073,638.699402 
	C869.865417,626.434753 872.322083,614.242432 873.844238,601.932373 
	C875.093872,591.827148 875.825562,581.598022 875.895630,571.417664 
	C876.138611,536.094543 875.993530,500.768707 875.993103,465.443939 
	C875.993103,464.277924 876.012085,463.108490 875.935486,461.946381 
	C874.631409,442.172028 873.314392,422.398529 871.998291,402.625000 
	C871.309021,392.269470 870.619202,381.914001 869.914490,371.559540 
	C869.881592,371.076111 869.711548,370.600006 869.587708,370.125092 
	C867.377014,361.648926 864.782715,353.250153 863.055603,344.676666 
	C861.252441,335.725128 860.544800,326.556976 858.876526,317.572998 
	C857.216980,308.635620 854.716492,299.855225 853.027466,290.922302 
	C851.116943,280.817505 849.673706,270.623535 848.084717,260.459381 
	C847.680115,257.871552 847.587585,255.235062 847.186462,252.646515 
	C846.188416,246.205353 845.095337,239.778900 844.686157,233.485046 
	C849.126099,237.212830 853.972229,239.509155 860.047180,239.068253 
	C865.185608,238.695312 870.375000,238.876282 875.536987,239.004852 
	C887.971741,239.314514 895.861511,224.662460 890.185547,215.103943 
	C886.271362,208.512283 879.694458,205.413986 874.053284,201.254074 
	C870.149231,198.375153 864.370544,198.178909 860.011963,195.742157 
	C853.892334,192.320801 847.580444,191.744827 840.867676,191.894775 
	C839.314026,191.929489 836.731384,190.678513 836.318420,189.449310 
	C834.250977,183.295929 829.574951,180.340744 824.068604,178.047836 
	C822.954895,177.584045 822.049622,176.619781 820.979126,175.112549 
M651.373535,883.455994 
	C649.210266,882.594360 646.855530,882.036560 644.918396,880.815979 
	C638.313293,876.654053 630.978760,877.498718 624.024780,878.363831 
	C620.291931,878.828186 615.121704,881.298584 613.695923,884.323181 
	C608.437317,895.478149 600.631592,906.190308 603.854309,919.829773 
	C604.357483,921.959351 603.924683,924.310059 603.924683,925.818848 
	C598.183838,925.176758 592.696960,924.233948 587.182251,924.024231 
	C579.199036,923.720703 571.195740,923.942261 563.200989,923.949768 
	C554.063477,923.958374 553.807861,923.955811 554.073120,914.697632 
	C554.435059,902.069336 551.131958,902.850586 565.846497,904.924927 
	C575.731689,906.318481 585.044312,899.789246 586.014221,890.277161 
	C586.982239,880.783813 579.724243,872.554993 569.902161,871.949158 
	C568.256592,871.847656 566.618835,871.554810 564.988281,871.285156 
	C555.748779,869.756958 546.674561,869.897095 537.818115,873.467590 
	C530.831665,876.284363 521.075684,890.368286 521.005493,898.258728 
	C520.923950,907.418640 520.646729,916.597107 521.116394,925.733459 
	C521.364929,930.567932 522.761414,935.402954 524.093872,940.109131 
	C526.459839,948.465637 534.956360,950.260376 540.818848,954.799072 
	C542.937927,956.439514 546.403381,956.885498 549.268066,956.926392 
	C563.755615,957.133179 578.247742,956.997375 592.738037,957.043396 
	C599.695312,957.065491 604.814575,954.139648 608.046875,947.946777 
	C608.998230,946.124023 610.015137,944.335510 611.247864,942.081726 
	C614.964966,944.549438 618.177185,946.551819 621.247437,948.752380 
	C625.282471,951.644287 629.518372,953.389160 634.669800,953.061157 
	C641.455750,952.629150 648.442322,953.553223 655.031860,952.282715 
	C663.386475,950.671875 666.088257,942.048950 671.115662,936.379578 
	C672.656189,934.642334 673.805054,931.868958 673.804321,929.570557 
	C673.800720,918.410645 675.400330,907.310913 669.825317,896.410034 
	C665.773987,888.488464 660.730591,884.214417 651.373535,883.455994 
M24.997160,899.367798 
	C25.329296,900.959534 25.352446,902.701904 26.043230,904.118774 
	C30.874523,914.028564 40.242298,917.356079 49.906906,919.931519 
	C53.724400,920.948853 57.799992,920.997498 61.758049,921.487305 
	C61.778828,921.918884 61.799606,922.350525 61.820385,922.782104 
	C60.504120,923.160034 59.180317,923.883728 57.872902,923.855225 
	C52.578503,923.739746 47.234230,923.782349 42.010010,923.045715 
	C32.771610,921.742981 23.907005,927.270813 22.227566,936.424255 
	C20.813187,944.133179 24.571211,953.369873 35.305946,955.690186 
	C39.325775,956.559143 43.518707,956.818298 47.646381,956.961365 
	C60.336220,957.401428 72.454910,954.894104 84.696945,951.343079 
	C97.795013,947.543640 107.644852,940.866394 113.069603,928.427795 
	C114.504189,925.138428 115.707138,920.478638 114.455215,917.538818 
	C111.406204,910.379211 111.652496,901.131836 101.831696,897.130981 
	C111.703972,890.230774 110.680733,880.609558 109.827301,871.647095 
	C108.937294,862.300598 101.076416,856.601685 94.662720,851.269104 
	C88.246132,845.933960 80.286736,842.150574 71.024467,842.180481 
	C63.648983,842.204224 56.279259,840.253357 48.887203,840.093506 
	C42.958118,839.965332 38.233818,843.062683 35.106865,848.428406 
	C28.173651,860.325317 38.635838,873.837463 50.814735,873.187256 
	C57.445358,872.833252 64.202148,874.283264 70.852058,875.259827 
	C72.425949,875.491028 73.798935,877.090271 75.956108,878.518066 
	C74.237000,879.282349 73.673973,879.723755 73.081467,879.767639 
	C62.678089,880.539673 52.280918,881.508667 41.862022,881.925049 
	C32.236279,882.309692 25.365345,888.760376 24.997160,899.367798 
M430.037567,881.869812 
	C426.586578,888.579590 429.635925,895.542542 431.837708,900.992126 
	C437.193329,914.247803 444.810974,926.727722 457.517120,934.520203 
	C462.323578,937.468018 464.623474,941.482544 467.242432,946.800232 
	C464.667816,947.242615 462.643188,947.838562 460.604126,947.893005 
	C455.111328,948.039856 449.610138,947.858704 444.116425,947.986755 
	C436.461884,948.165161 429.914459,953.729126 428.218628,961.300476 
	C426.674072,968.196167 430.215485,976.214661 437.175903,978.854370 
	C441.634216,980.545105 446.783447,980.624146 451.655273,980.969604 
	C461.116852,981.640503 470.475464,980.786255 479.230682,976.887573 
	C482.343292,975.501465 485.147949,973.260620 487.805359,971.062012 
	C490.395569,968.919067 493.672180,966.743530 494.798859,963.859985 
	C497.842102,956.071594 501.064728,948.788330 498.585999,939.225586 
	C494.816956,924.684753 486.167358,915.065308 474.684753,906.869263 
	C470.792480,904.091003 467.484253,900.812805 466.500946,895.010559 
	C474.267883,895.010559 481.387024,894.993225 488.506042,895.014709 
	C498.389313,895.044556 505.922302,888.233093 506.063843,879.105530 
	C506.216278,869.272644 498.906036,861.995300 488.733521,861.962158 
	C477.074280,861.924133 465.412781,861.858582 453.756866,862.064331 
	C451.212219,862.109192 447.923523,862.459167 446.291290,864.031982 
	C440.694916,869.424866 435.682556,875.423828 430.037567,881.869812 
M212.942520,921.499634 
	C214.340347,927.730896 215.199142,934.158203 217.363968,940.110535 
	C218.442825,943.076843 221.868088,945.218628 224.314407,947.650513 
	C226.605011,949.927673 228.730637,952.540100 231.425201,954.198486 
	C234.783661,956.265442 238.516510,958.235107 242.328827,958.937012 
	C248.440521,960.062073 254.961044,961.358093 260.931427,960.349121 
	C272.501617,958.393616 280.857483,951.975891 284.373840,939.799255 
	C286.486572,932.483154 286.874634,925.346985 284.933746,918.307129 
	C284.051697,915.107605 281.360596,911.543518 278.487366,909.928101 
	C271.548737,906.026733 264.986603,900.456177 256.056366,901.737671 
	C255.574310,901.806824 254.984146,901.122681 253.862518,900.429871 
	C257.857147,892.219604 259.875824,882.812866 270.592529,880.198120 
	C271.701782,879.927368 272.759583,879.337585 273.763275,878.760193 
	C279.110229,875.684204 281.923523,870.862671 281.963654,864.868103 
	C282.004456,858.779114 279.709198,853.729858 273.959259,850.462769 
	C267.769928,846.946228 262.334473,849.234009 255.994644,850.421509 
	C245.142609,852.454102 240.613922,860.866882 234.999634,867.801392 
	C229.586945,874.487061 226.667694,883.130554 222.075531,890.556702 
	C216.338989,899.833496 213.910095,909.943665 212.942520,921.499634 
M128.992691,862.953674 
	C128.994934,872.618896 128.929291,882.285095 129.057571,891.948608 
	C129.082779,893.848145 129.641754,895.819275 130.323181,897.617676 
	C133.249405,905.340759 141.075638,907.979736 146.748322,912.790894 
	C148.840652,914.565430 152.619171,914.668457 155.677963,914.910522 
	C159.923355,915.246460 164.215240,914.994934 169.086517,914.994934 
	C168.856979,918.512024 169.438049,921.622070 168.363220,923.976013 
	C163.965622,933.606445 169.812759,943.615112 179.575439,946.786316 
	C187.599945,949.392883 198.158951,942.911499 199.806061,933.595764 
	C201.760696,922.540710 202.925385,911.323853 203.952042,900.133118 
	C204.966660,889.073669 205.622437,877.966919 205.973297,866.866333 
	C206.195496,859.835999 200.430206,853.153870 193.449707,851.251160 
	C187.305557,849.576416 178.192734,852.808899 175.810013,858.523987 
	C173.240051,864.688171 171.517242,871.275146 170.116165,877.825562 
	C169.484329,880.779541 168.427750,881.865784 165.683990,881.903137 
	C162.800644,881.942322 161.987930,880.325378 162.027283,877.746765 
	C162.095917,873.248596 162.235825,868.737671 161.986435,864.252075 
	C161.689835,858.916748 159.814301,854.173950 155.174118,851.053223 
	C144.737778,844.034058 131.730637,849.436096 128.992691,862.953674 
M775.615173,927.431335 
	C777.653137,932.639282 781.041260,936.734741 786.507202,938.203430 
	C789.788208,939.085022 793.441345,938.499023 796.818542,939.142944 
	C798.327271,939.430603 800.564941,940.960449 800.764404,942.201050 
	C801.806274,948.681763 802.263184,955.254700 802.993713,961.787720 
	C803.812866,969.114136 807.913269,973.994141 814.728882,976.380737 
	C820.567139,978.425110 826.107910,976.803833 830.452148,972.830261 
	C835.081177,968.596191 837.026611,963.107788 835.643982,956.562317 
	C834.727783,952.225037 834.612244,947.722656 834.045593,943.306152 
	C833.617493,939.969910 835.096191,939.039917 838.287292,938.988770 
	C844.087769,938.895691 849.896118,938.502747 855.672852,937.942688 
	C861.233582,937.403687 865.804382,934.961548 868.695740,929.927979 
	C872.295532,923.661255 871.989258,917.449219 867.761414,911.743408 
	C863.681274,906.236938 857.929077,904.328369 851.095154,905.092834 
	C846.325134,905.626526 841.497253,905.627014 836.699646,905.934570 
	C833.721008,906.125427 833.040222,904.782593 833.335510,901.982117 
	C833.804565,897.534058 834.104248,893.039917 834.047180,888.570740 
	C833.942261,880.366272 828.452942,873.837952 820.687256,872.228699 
	C813.301453,870.698181 805.259888,874.465881 802.761353,882.075806 
	C801.066162,887.239197 801.362183,893.095459 801.033020,898.657532 
	C800.676514,904.683167 799.597229,906.287170 793.665466,905.895142 
	C782.224792,905.139221 772.750977,914.664856 775.615173,927.431335 
M708.801331,948.668030 
	C712.888184,953.561157 716.768494,958.651855 721.165039,963.248718 
	C722.889160,965.051392 725.659729,966.431091 728.142761,966.831848 
	C739.810608,968.714966 750.423035,965.472473 760.135437,959.091492 
	C761.559753,958.155701 762.958008,956.474731 763.402710,954.870911 
	C765.778442,946.301697 768.747620,937.753235 769.777527,928.993774 
	C770.878052,919.633606 770.136658,910.045593 770.031982,900.558838 
	C769.958069,893.861877 763.857971,886.724792 757.177734,885.167114 
	C750.243530,883.550171 741.695435,887.033020 739.303650,893.648071 
	C737.568604,898.446899 737.354614,903.894897 737.054382,909.087585 
	C736.696167,915.281128 736.969910,921.511108 736.969910,927.725342 
	C735.521118,927.376404 735.093628,926.934265 734.883667,926.405762 
	C732.577087,920.598083 730.563293,914.657898 727.956726,908.989685 
	C724.709473,901.928284 721.020569,895.067627 717.447876,888.158752 
	C714.383057,882.231995 706.678223,878.731201 700.244019,880.228882 
	C692.855225,881.948792 687.542358,888.253479 686.906799,895.164551 
	C686.330627,901.429810 690.514282,905.569397 692.742249,910.630371 
	C698.186279,922.996826 703.277527,935.518494 708.801331,948.668030 
z"/>
<path fill="#000000" opacity="1.000000" stroke="none" 
	d="
M164.781479,765.040283 
	C162.860153,759.085815 160.761200,753.181152 159.073563,747.161133 
	C157.717987,742.325623 156.870590,737.348083 155.780273,732.437500 
	C153.531815,722.310547 151.430725,712.147461 148.979095,702.069824 
	C145.312500,686.997742 147.804672,671.703613 146.982712,656.536011 
	C146.467117,647.021973 146.409241,637.396362 144.817902,628.046814 
	C142.186356,612.585571 142.133743,596.979187 140.663940,581.486389 
	C137.557938,548.747314 139.752640,516.032349 139.180695,483.320953 
	C139.059799,476.407318 141.330643,469.469879 142.288849,462.514435 
	C143.320053,455.029083 144.111633,447.510529 144.993103,440.004791 
	C146.272339,429.111908 147.685135,418.231873 148.756882,407.318481 
	C149.435165,400.411499 149.186523,393.399689 150.092834,386.532440 
	C151.243378,377.814850 153.142517,369.196014 154.721436,360.535095 
	C154.780701,360.209991 154.901779,359.893402 154.935654,359.566803 
	C155.627289,352.896118 156.506149,346.237640 156.952713,339.550354 
	C157.775955,327.222321 157.173416,314.671967 159.292679,302.587372 
	C162.489914,284.355896 159.972046,266.173553 161.300217,247.683746 
	C164.970703,248.193710 168.440887,248.711990 171.644196,249.931427 
	C178.394150,252.500961 184.371887,250.828033 189.094925,246.141327 
	C193.828827,241.443848 195.710785,235.371521 192.854599,228.743164 
	C191.252045,225.024124 192.704086,224.252945 196.253464,223.920624 
	C207.133362,222.901871 218.006592,221.715271 228.830063,220.215912 
	C241.290863,218.489761 253.641449,216.448807 266.354614,216.895523 
	C294.744446,217.893051 323.153931,218.331329 351.555298,219.002274 
	C354.713104,219.076843 357.870209,219.182648 361.027618,219.273956 
	C364.801147,225.043091 363.096283,230.534241 360.680908,234.813095 
	C364.338623,239.069809 368.775146,242.385727 370.657379,246.792633 
	C375.118744,257.238220 378.338135,268.212006 382.122498,278.950104 
	C383.635864,283.244232 385.571991,287.405609 386.833954,291.766815 
	C387.779144,295.033295 387.943329,298.524475 388.472748,301.912842 
	C389.631653,309.329742 390.744873,316.754517 391.994476,324.156189 
	C392.508362,327.200073 393.535400,330.163300 393.964355,333.214478 
	C395.124390,341.466095 396.071381,349.747528 397.168671,358.008392 
	C397.244843,358.581940 397.861450,359.083679 398.577301,360.316895 
	C398.284912,368.739929 397.307861,376.455017 397.079590,384.192230 
	C396.760406,395.011841 397.058807,405.848389 396.978790,416.676849 
	C396.927063,423.681213 399.173950,429.223267 405.605316,432.850403 
	C412.349243,436.653778 418.321167,435.084869 424.300598,431.174896 
	C425.878876,430.142883 427.882477,429.036743 429.636841,429.118774 
	C439.370178,429.573853 449.100830,430.249115 458.791168,431.248901 
	C459.981018,431.371643 461.770905,433.837860 461.847473,435.293610 
	C462.432251,446.409058 462.284088,457.570526 463.087433,468.665283 
	C464.320007,485.687836 466.282562,502.656494 467.632965,519.672058 
	C468.314087,528.254578 468.942505,536.921021 468.507477,545.494263 
	C467.819336,559.056885 465.858124,572.553650 465.123749,586.115601 
	C464.602600,595.739258 472.271362,603.050964 481.610504,602.999695 
	C490.936493,602.948486 497.921448,595.652283 498.000214,585.879272 
	C498.029755,582.214844 497.646729,578.491699 498.158356,574.895935 
	C500.566406,557.972107 502.539246,541.041809 500.987854,523.909607 
	C500.569275,519.287292 499.975433,514.681091 499.524048,510.061432 
	C498.331238,497.853241 496.938995,485.658234 496.073975,473.426331 
	C495.382996,463.655884 495.330627,453.839478 495.038055,444.042206 
	C494.955658,441.283020 495.025482,438.519318 495.025482,435.195465 
	C501.374054,436.346100 506.849426,437.483917 512.371521,438.308716 
	C523.446533,439.962860 534.527771,441.609589 545.645447,442.930298 
	C551.145447,443.583679 555.569153,440.879150 559.365051,437.045532 
	C560.509216,435.889984 561.755005,434.712250 563.177551,433.976196 
	C569.336243,430.789429 571.872437,425.539825 571.985168,418.912415 
	C572.143677,409.589569 572.185425,400.264740 572.277100,390.940765 
	C576.565552,379.879486 581.408142,368.993988 584.988647,357.708130 
	C588.662659,346.127289 590.003357,333.730072 594.358765,322.460602 
	C599.914795,308.084564 598.150085,293.213623 599.938049,278.615417 
	C601.039551,269.622528 600.958740,260.480194 602.159790,251.505493 
	C603.237732,243.450989 605.897461,235.595947 606.798706,227.534332 
	C607.402039,222.137360 609.121460,217.749573 613.192932,213.481186 
	C631.156921,208.396637 648.945923,208.748657 666.703674,209.024307 
	C704.280823,209.607605 741.854980,210.387054 779.432190,210.969482 
	C791.921387,211.163071 804.418823,211.148193 816.906677,210.915161 
	C820.912659,210.840424 823.598328,211.776108 824.931946,215.785812 
	C826.645874,220.939117 831.068298,223.832642 835.738892,224.445435 
	C841.651611,225.221161 842.825928,228.956741 844.040344,233.346558 
	C845.095337,239.778900 846.188416,246.205353 847.186462,252.646515 
	C847.587585,255.235062 847.680115,257.871552 848.084717,260.459381 
	C849.673706,270.623535 851.116943,280.817505 853.027466,290.922302 
	C854.716492,299.855225 857.216980,308.635620 858.876526,317.572998 
	C860.544800,326.556976 861.252441,335.725128 863.055603,344.676666 
	C864.782715,353.250153 867.377014,361.648926 869.587708,370.125092 
	C869.711548,370.600006 869.881592,371.076111 869.914490,371.559540 
	C870.619202,381.914001 871.309021,392.269470 871.998291,402.625000 
	C873.314392,422.398529 874.631409,442.172028 875.935486,461.946381 
	C876.012085,463.108490 875.993103,464.277924 875.993103,465.443939 
	C875.993530,500.768707 876.138611,536.094543 875.895630,571.417664 
	C875.825562,581.598022 875.093872,591.827148 873.844238,601.932373 
	C872.322083,614.242432 869.865417,626.434753 867.950073,638.699402 
	C867.119263,644.019470 866.730591,649.407471 865.953613,654.737305 
	C865.388733,658.611877 864.603577,662.460693 863.764282,666.287598 
	C861.186462,678.041687 858.689697,689.817261 855.844910,701.507568 
	C854.504944,707.014099 851.869812,712.237061 850.828430,717.777832 
	C848.840637,728.353577 847.599915,739.068665 845.993103,749.717468 
	C845.511719,752.907532 844.844543,756.069580 843.947876,759.701782 
	C843.599487,760.265625 843.512756,760.390747 843.542419,760.474915 
	C843.613159,760.676147 843.738708,760.858093 843.842224,761.047852 
	C843.886047,763.069519 843.929810,765.091248 843.712158,767.834473 
	C843.110779,770.086853 842.770935,771.617737 842.494568,772.862488 
	C836.442078,771.199951 830.826721,768.851379 825.024109,768.217285 
	C808.713379,766.434814 792.339722,765.142029 775.963806,764.067871 
	C761.223206,763.101013 746.451233,762.556458 731.685425,762.045715 
	C709.100281,761.264526 686.512573,760.366455 663.918823,760.077332 
	C635.602844,759.714722 607.279724,759.917664 578.959656,759.876465 
	C577.852722,756.994751 576.473755,754.184448 575.694214,751.216736 
	C573.971313,744.657532 572.187744,738.078491 571.091248,731.398804 
	C569.462402,721.477051 570.172852,711.219360 566.424072,701.573181 
	C565.142517,698.275513 564.392517,694.635132 564.167114,691.102356 
	C563.951782,687.727478 562.572632,686.947815 559.518738,686.951355 
	C510.083710,687.009155 460.648529,686.989380 411.213409,686.996765 
	C410.394928,686.996887 409.576416,687.116699 407.980713,687.241394 
	C407.980713,690.189087 407.980713,693.105347 407.980713,696.021667 
	C407.980713,699.683533 407.910370,703.346985 407.994415,707.006958 
	C408.210388,716.409668 407.733337,725.586975 404.857513,734.784485 
	C402.302124,742.957031 401.705261,751.723572 399.827362,760.134949 
	C399.020752,763.747742 397.160858,767.125488 395.167358,770.659790 
	C389.988190,767.359497 385.037262,765.884766 379.214264,765.903320 
	C327.235077,766.069214 275.254608,766.126709 223.275879,765.898560 
	C212.181808,765.849854 201.069824,764.756409 190.010025,763.689026 
	C181.481918,762.866028 172.971390,760.313354 164.781479,765.040283 
M277.708893,585.311157 
	C278.215576,586.361389 278.696289,587.425110 279.233185,588.459656 
	C282.427856,594.615601 290.311432,598.330811 296.908905,596.803284 
	C303.900970,595.184387 309.959351,588.488953 309.923889,581.575256 
	C309.864288,569.944641 310.077667,558.245056 308.915070,546.701477 
	C306.344299,521.176331 303.110291,495.714783 299.876282,470.261658 
	C298.981110,463.216034 294.492737,458.506531 287.675140,456.504120 
	C281.526917,454.698334 275.871063,456.586182 271.683075,461.045471 
	C267.262787,465.752136 265.450928,471.576996 268.006256,478.105255 
	C268.540131,479.469208 268.811035,480.973450 268.975952,482.438599 
	C270.422516,495.288269 271.919128,508.133606 273.200256,521.000183 
	C274.579529,534.852661 275.917175,548.714050 276.928467,562.596558 
	C277.459442,569.885437 277.253693,577.228027 277.708893,585.311157 
M763.211853,500.152069 
	C752.525085,494.614044 746.469116,496.136902 738.853027,505.915009 
	C737.908264,507.128052 735.860168,507.670959 734.213013,508.116394 
	C724.952087,510.620728 718.796570,520.467773 721.448181,528.720215 
	C724.661316,538.720337 733.455383,542.391724 743.609192,540.015869 
	C751.989319,538.055054 759.196777,535.722900 762.848694,527.250854 
	C762.962830,526.986206 763.384644,526.867615 763.628418,526.643372 
	C772.137085,518.816223 772.217957,508.616272 763.211853,500.152069 
z"/>
<path fill="#1B1B1B" opacity="1.000000" stroke="none" 
	d="
M572.240479,390.526306 
	C572.185425,400.264740 572.143677,409.589569 571.985168,418.912415 
	C571.872437,425.539825 569.336243,430.789429 563.177551,433.976196 
	C561.755005,434.712250 560.509216,435.889984 559.365051,437.045532 
	C555.569153,440.879150 551.145447,443.583679 545.645447,442.930298 
	C534.527771,441.609589 523.446533,439.962860 512.371521,438.308716 
	C506.849426,437.483917 501.374054,436.346100 495.025482,435.195465 
	C495.025482,438.519318 494.955658,441.283020 495.038055,444.042206 
	C495.330627,453.839478 495.382996,463.655884 496.073975,473.426331 
	C496.938995,485.658234 498.331238,497.853241 499.524048,510.061432 
	C499.975433,514.681091 500.569275,519.287292 500.987854,523.909607 
	C502.539246,541.041809 500.566406,557.972107 498.158356,574.895935 
	C497.646729,578.491699 498.029755,582.214844 498.000214,585.879272 
	C497.921448,595.652283 490.936493,602.948486 481.610504,602.999695 
	C472.271362,603.050964 464.602600,595.739258 465.123749,586.115601 
	C465.858124,572.553650 467.819336,559.056885 468.507477,545.494263 
	C468.942505,536.921021 468.314087,528.254578 467.632965,519.672058 
	C466.282562,502.656494 464.320007,485.687836 463.087433,468.665283 
	C462.284088,457.570526 462.432251,446.409058 461.847473,435.293610 
	C461.770905,433.837860 459.981018,431.371643 458.791168,431.248901 
	C449.100830,430.249115 439.370178,429.573853 429.636841,429.118774 
	C427.882477,429.036743 425.878876,430.142883 424.300598,431.174896 
	C418.321167,435.084869 412.349243,436.653778 405.605316,432.850403 
	C399.173950,429.223267 396.927063,423.681213 396.978790,416.676849 
	C397.058807,405.848389 396.760406,395.011841 397.079590,384.192230 
	C397.307861,376.455017 398.284912,368.739929 398.879761,360.554901 
	C399.559662,358.012482 400.802155,355.957672 400.915527,353.842377 
	C401.209015,348.366455 400.495239,342.803009 401.142181,337.389038 
	C401.791443,331.955383 403.108856,326.468994 405.093689,321.380249 
	C406.181122,318.592255 409.099060,316.409454 411.466248,314.255646 
	C414.804077,311.218719 418.222961,308.202942 421.956024,305.698059 
	C423.725555,304.510712 426.290863,304.145599 428.517456,304.072357 
	C434.834961,303.864471 441.194550,304.396301 447.480988,303.908142 
	C457.605652,303.121918 467.661316,301.371643 477.790497,300.741608 
	C486.849121,300.178131 495.995697,300.121155 505.052185,300.676605 
	C514.847839,301.277405 524.605103,302.695068 534.340271,304.037750 
	C543.449524,305.294067 552.674500,305.374084 559.825745,313.455383 
	C562.998291,317.040497 567.341492,319.470245 570.281921,323.977051 
	C575.417969,331.848969 576.562683,340.028931 576.043579,348.970764 
	C575.506409,358.223755 575.578186,367.515808 574.899902,376.755280 
	C574.569946,381.249207 573.137329,385.662201 572.240479,390.526306 
z"/>
<path fill="#000001" opacity="1.000000" stroke="none" 
	d="
M168.955963,191.875793 
	C168.971970,179.225723 169.136002,166.573502 168.951492,153.926361 
	C168.830322,145.621185 170.246124,137.702209 173.429474,130.065170 
	C173.618408,129.611938 174.036011,129.048859 173.907288,128.698517 
	C170.969498,120.702789 175.556366,113.793190 176.904587,106.390556 
	C178.320572,98.615929 185.194489,92.071693 193.213165,92.020660 
	C199.038727,91.983582 204.898880,92.413170 210.683121,91.922050 
	C221.613937,90.993950 232.485229,89.373962 243.413086,88.397865 
	C249.188248,87.882011 255.050735,88.389732 260.838348,87.958923 
	C276.232269,86.813057 291.588043,84.808846 306.996094,84.322418 
	C316.911346,84.009399 327.218811,81.629852 336.855988,86.392441 
	C342.085571,88.976860 344.632111,93.684853 344.875763,99.095085 
	C345.532318,113.672256 345.431366,128.284073 346.120575,142.858978 
	C346.363281,147.991730 347.738739,153.136566 349.114838,158.133255 
	C350.788147,164.209152 353.008484,170.134415 355.004700,176.895752 
	C355.294189,179.461105 355.571136,181.255569 355.848114,183.050018 
	C356.237946,183.788284 356.627747,184.526550 356.563690,185.604889 
	C339.529480,185.309555 322.952789,184.281998 306.367920,184.125473 
	C277.351837,183.851608 248.338715,182.973602 219.486526,188.165451 
	C202.874084,191.154785 185.969467,192.980286 168.955963,191.875793 
z"/>
<path fill="#000001" opacity="1.000000" stroke="none" 
	d="
M620.955383,176.874481 
	C621.636841,172.549484 622.798767,168.236389 622.906311,163.897186 
	C623.186951,152.573074 623.344727,141.224747 622.918518,129.909912 
	C622.445068,117.338303 627.214966,106.577156 633.398865,96.237679 
	C636.461792,91.116402 645.680115,88.689812 651.617737,90.821808 
	C652.736328,91.223434 654.295044,91.701653 655.184204,91.242058 
	C666.350830,85.470108 678.381714,85.882645 690.403748,85.990646 
	C700.234192,86.078957 710.073486,86.247543 719.895752,85.948219 
	C734.584229,85.500626 749.257202,84.554047 763.945251,84.082855 
	C768.198914,83.946396 772.655945,84.089790 776.704163,85.227585 
	C781.200928,86.491425 785.876953,88.392456 787.724609,93.493942 
	C789.020630,97.072334 791.872681,98.884491 794.660034,101.211189 
	C797.823486,103.851807 799.874268,108.045120 801.801575,111.869431 
	C803.083130,114.412476 802.687561,117.853432 804.109253,120.263306 
	C808.412537,127.557983 808.327026,135.418106 807.939697,143.361053 
	C807.750977,147.230225 809.521545,149.981277 811.353516,153.253738 
	C815.224854,160.168945 817.845459,167.784363 820.875000,175.878265 
	C818.772705,177.096146 816.766479,177.974152 814.777527,177.936722 
	C784.249939,177.362106 753.727417,176.443665 723.197998,176.069901 
	C696.599426,175.744263 669.993652,175.979050 643.391174,176.035767 
	C640.593262,176.041733 637.800781,176.655487 634.998108,176.743683 
	C630.320496,176.890900 625.636597,176.841263 620.955383,176.874481 
z"/>
<path fill="#1A1B1C" opacity="1.000000" stroke="none" 
	d="
M620.615479,177.016541 
	C625.636597,176.841263 630.320496,176.890900 634.998108,176.743683 
	C637.800781,176.655487 640.593262,176.041733 643.391174,176.035767 
	C669.993652,175.979050 696.599426,175.744263 723.197998,176.069901 
	C753.727417,176.443665 784.249939,177.362106 814.777527,177.936722 
	C816.766479,177.974152 818.772705,177.096146 820.909546,176.265137 
	C822.049622,176.619781 822.954895,177.584045 824.068604,178.047836 
	C829.574951,180.340744 834.250977,183.295929 836.318420,189.449310 
	C836.731384,190.678513 839.314026,191.929489 840.867676,191.894775 
	C847.580444,191.744827 853.892334,192.320801 860.011963,195.742157 
	C864.370544,198.178909 870.149231,198.375153 874.053284,201.254074 
	C879.694458,205.413986 886.271362,208.512283 890.185547,215.103943 
	C895.861511,224.662460 887.971741,239.314514 875.536987,239.004852 
	C870.375000,238.876282 865.185608,238.695312 860.047180,239.068253 
	C853.972229,239.509155 849.126099,237.212830 844.363281,233.415802 
	C842.825928,228.956741 841.651611,225.221161 835.738892,224.445435 
	C831.068298,223.832642 826.645874,220.939117 824.931946,215.785812 
	C823.598328,211.776108 820.912659,210.840424 816.906677,210.915161 
	C804.418823,211.148193 791.921387,211.163071 779.432190,210.969482 
	C741.854980,210.387054 704.280823,209.607605 666.703674,209.024307 
	C648.945923,208.748657 631.156921,208.396637 613.370728,213.206512 
	C600.018677,211.776382 591.947815,198.604126 600.277466,186.948318 
	C602.647766,183.631531 607.641541,182.051987 611.631165,180.077881 
	C614.332703,178.741119 617.381836,178.106964 620.615479,177.016541 
z"/>
<path fill="#FADE09" opacity="1.000000" stroke="none" 
	d="
M651.754639,883.591309 
	C660.730591,884.214417 665.773987,888.488464 669.825317,896.410034 
	C675.400330,907.310913 673.800720,918.410645 673.804321,929.570557 
	C673.805054,931.868958 672.656189,934.642334 671.115662,936.379578 
	C666.088257,942.048950 663.386475,950.671875 655.031860,952.282715 
	C648.442322,953.553223 641.455750,952.629150 634.669800,953.061157 
	C629.518372,953.389160 625.282471,951.644287 621.247437,948.752380 
	C618.177185,946.551819 614.964966,944.549438 611.247864,942.081726 
	C610.015137,944.335510 608.998230,946.124023 608.046875,947.946777 
	C604.814575,954.139648 599.695312,957.065491 592.738037,957.043396 
	C578.247742,956.997375 563.755615,957.133179 549.268066,956.926392 
	C546.403381,956.885498 542.937927,956.439514 540.818848,954.799072 
	C534.956360,950.260376 526.459839,948.465637 524.093872,940.109131 
	C522.761414,935.402954 521.364929,930.567932 521.116394,925.733459 
	C520.646729,916.597107 520.923950,907.418640 521.005493,898.258728 
	C521.075684,890.368286 530.831665,876.284363 537.818115,873.467590 
	C546.674561,869.897095 555.748779,869.756958 564.988281,871.285156 
	C566.618835,871.554810 568.256592,871.847656 569.902161,871.949158 
	C579.724243,872.554993 586.982239,880.783813 586.014221,890.277161 
	C585.044312,899.789246 575.731689,906.318481 565.846497,904.924927 
	C551.131958,902.850586 554.435059,902.069336 554.073120,914.697632 
	C553.807861,923.955811 554.063477,923.958374 563.200989,923.949768 
	C571.195740,923.942261 579.199036,923.720703 587.182251,924.024231 
	C592.696960,924.233948 598.183838,925.176758 603.924683,925.818848 
	C603.924683,924.310059 604.357483,921.959351 603.854309,919.829773 
	C600.631592,906.190308 608.437317,895.478149 613.695923,884.323181 
	C615.121704,881.298584 620.291931,878.828186 624.024780,878.363831 
	C630.978760,877.498718 638.313293,876.654053 644.918396,880.815979 
	C646.855530,882.036560 649.210266,882.594360 651.754639,883.591309 
z"/>
<path fill="#1A1B1C" opacity="1.000000" stroke="none" 
	d="
M168.564911,191.924133 
	C185.969467,192.980286 202.874084,191.154785 219.486526,188.165451 
	C248.338715,182.973602 277.351837,183.851608 306.367920,184.125473 
	C322.952789,184.281998 339.529480,185.309555 356.578979,185.924469 
	C363.368744,186.598206 369.923065,184.651184 375.991058,188.403610 
	C381.357422,191.722153 385.251282,199.525879 383.872314,205.798279 
	C382.383392,212.570801 375.428375,218.727463 368.938629,218.983826 
	C366.609161,219.075851 364.276733,219.092911 361.486633,219.209076 
	C357.870209,219.182648 354.713104,219.076843 351.555298,219.002274 
	C323.153931,218.331329 294.744446,217.893051 266.354614,216.895523 
	C253.641449,216.448807 241.290863,218.489761 228.830063,220.215912 
	C218.006592,221.715271 207.133362,222.901871 196.253464,223.920624 
	C192.704086,224.252945 191.252045,225.024124 192.854599,228.743164 
	C195.710785,235.371521 193.828827,241.443848 189.094925,246.141327 
	C184.371887,250.828033 178.394150,252.500961 171.644196,249.931427 
	C168.440887,248.711990 164.970703,248.193710 161.272156,247.221130 
	C150.728592,246.383301 140.497208,246.012924 130.351852,244.875366 
	C122.360275,243.979324 115.691772,237.081680 115.969543,227.639816 
	C116.191864,220.082901 123.567085,212.239685 131.014420,212.041550 
	C138.081512,211.853531 145.157532,212.001099 152.758621,212.001099 
	C152.388611,201.862549 156.355164,193.907852 168.564911,191.924133 
z"/>
<path fill="#1A1B1C" opacity="1.000000" stroke="none" 
	d="
M578.540894,759.902832 
	C607.279724,759.917664 635.602844,759.714722 663.918823,760.077332 
	C686.512573,760.366455 709.100281,761.264526 731.685425,762.045715 
	C746.451233,762.556458 761.223206,763.101013 775.963806,764.067871 
	C792.339722,765.142029 808.713379,766.434814 825.024109,768.217285 
	C830.826721,768.851379 836.442078,771.199951 842.494568,772.862488 
	C842.770935,771.617737 843.110779,770.086853 843.644165,768.263184 
	C844.962280,772.540771 845.804565,777.204773 847.279724,781.659119 
	C849.338501,787.875793 847.563354,793.251892 843.604614,797.687317 
	C839.404907,802.392883 833.718872,803.870789 827.336670,802.718811 
	C819.607483,801.323730 811.854919,799.948181 804.054321,799.099060 
	C799.118347,798.561707 794.058655,799.272400 789.084595,798.953491 
	C770.506165,797.762390 751.956665,795.999268 733.364136,795.186829 
	C718.906738,794.555115 704.319763,796.000916 689.933533,794.803040 
	C652.081177,791.651123 614.199097,793.695618 576.341003,792.981445 
	C568.132263,792.826599 561.228638,785.142151 560.953369,776.620972 
	C560.690979,768.498718 568.420776,759.382690 578.540894,759.902832 
z"/>
<path fill="#FADE09" opacity="1.000000" stroke="none" 
	d="
M24.998615,898.938110 
	C25.365345,888.760376 32.236279,882.309692 41.862022,881.925049 
	C52.280918,881.508667 62.678089,880.539673 73.081467,879.767639 
	C73.673973,879.723755 74.237000,879.282349 75.956108,878.518066 
	C73.798935,877.090271 72.425949,875.491028 70.852058,875.259827 
	C64.202148,874.283264 57.445358,872.833252 50.814735,873.187256 
	C38.635838,873.837463 28.173651,860.325317 35.106865,848.428406 
	C38.233818,843.062683 42.958118,839.965332 48.887203,840.093506 
	C56.279259,840.253357 63.648983,842.204224 71.024467,842.180481 
	C80.286736,842.150574 88.246132,845.933960 94.662720,851.269104 
	C101.076416,856.601685 108.937294,862.300598 109.827301,871.647095 
	C110.680733,880.609558 111.703972,890.230774 101.831696,897.130981 
	C111.652496,901.131836 111.406204,910.379211 114.455215,917.538818 
	C115.707138,920.478638 114.504189,925.138428 113.069603,928.427795 
	C107.644852,940.866394 97.795013,947.543640 84.696945,951.343079 
	C72.454910,954.894104 60.336220,957.401428 47.646381,956.961365 
	C43.518707,956.818298 39.325775,956.559143 35.305946,955.690186 
	C24.571211,953.369873 20.813187,944.133179 22.227566,936.424255 
	C23.907005,927.270813 32.771610,921.742981 42.010010,923.045715 
	C47.234230,923.782349 52.578503,923.739746 57.872902,923.855225 
	C59.180317,923.883728 60.504120,923.160034 61.820385,922.782104 
	C61.799606,922.350525 61.778828,921.918884 61.758049,921.487305 
	C57.799992,920.997498 53.724400,920.948853 49.906906,919.931519 
	C40.242298,917.356079 30.874523,914.028564 26.043230,904.118774 
	C25.352446,902.701904 25.329296,900.959534 24.998615,898.938110 
z"/>
<path fill="#1A1B1C" opacity="1.000000" stroke="none" 
	d="
M164.715393,765.368591 
	C172.971390,760.313354 181.481918,762.866028 190.010025,763.689026 
	C201.069824,764.756409 212.181808,765.849854 223.275879,765.898560 
	C275.254608,766.126709 327.235077,766.069214 379.214264,765.903320 
	C385.037262,765.884766 389.988190,767.359497 394.875427,770.868530 
	C398.710846,777.467102 401.032196,783.869690 396.615936,791.009705 
	C393.563965,795.944031 389.192291,798.882263 383.728516,798.898865 
	C328.987427,799.065002 274.243073,799.287231 219.505615,798.809753 
	C203.892929,798.673523 188.256699,796.671753 172.717819,794.804932 
	C166.154633,794.016418 161.404144,789.441895 159.493652,782.885437 
	C157.544464,776.196106 160.206863,770.612671 164.715393,765.368591 
z"/>
<path fill="#FADE0A" opacity="1.000000" stroke="none" 
	d="
M430.242554,881.530762 
	C435.682556,875.423828 440.694916,869.424866 446.291290,864.031982 
	C447.923523,862.459167 451.212219,862.109192 453.756866,862.064331 
	C465.412781,861.858582 477.074280,861.924133 488.733521,861.962158 
	C498.906036,861.995300 506.216278,869.272644 506.063843,879.105530 
	C505.922302,888.233093 498.389313,895.044556 488.506042,895.014709 
	C481.387024,894.993225 474.267883,895.010559 466.500946,895.010559 
	C467.484253,900.812805 470.792480,904.091003 474.684753,906.869263 
	C486.167358,915.065308 494.816956,924.684753 498.585999,939.225586 
	C501.064728,948.788330 497.842102,956.071594 494.798859,963.859985 
	C493.672180,966.743530 490.395569,968.919067 487.805359,971.062012 
	C485.147949,973.260620 482.343292,975.501465 479.230682,976.887573 
	C470.475464,980.786255 461.116852,981.640503 451.655273,980.969604 
	C446.783447,980.624146 441.634216,980.545105 437.175903,978.854370 
	C430.215485,976.214661 426.674072,968.196167 428.218628,961.300476 
	C429.914459,953.729126 436.461884,948.165161 444.116425,947.986755 
	C449.610138,947.858704 455.111328,948.039856 460.604126,947.893005 
	C462.643188,947.838562 464.667816,947.242615 467.242432,946.800232 
	C464.623474,941.482544 462.323578,937.468018 457.517120,934.520203 
	C444.810974,926.727722 437.193329,914.247803 431.837708,900.992126 
	C429.635925,895.542542 426.586578,888.579590 430.242554,881.530762 
z"/>
<path fill="#FADE0A" opacity="1.000000" stroke="none" 
	d="
M333.900818,933.301819 
	C333.481415,933.229919 333.061981,933.158081 331.981323,933.027710 
	C328.595215,931.924866 325.870361,930.880554 323.145508,929.836243 
	C323.145508,929.836243 322.994690,929.983582 322.938904,929.596008 
	C319.240479,927.181702 315.597839,925.155029 311.955200,923.128296 
	C311.955200,923.128296 311.946045,923.023987 311.870514,922.783691 
	C311.629059,922.210510 311.360046,922.042053 310.987915,922.038208 
	C310.987915,922.038208 311.010498,922.006653 311.043884,921.639038 
	C308.766998,916.471375 306.456757,911.671326 304.146515,906.871216 
	C304.146515,906.871216 304.016449,907.002441 304.147644,906.497803 
	C303.881317,898.944641 303.263550,891.899048 303.165070,884.846313 
	C303.101288,880.279236 303.796539,875.701599 304.151672,871.128662 
	C304.151672,871.128662 304.013702,871.002441 304.375916,870.885803 
	C308.865082,864.550110 312.992035,858.331055 317.119019,852.111938 
	C317.118988,852.111938 317.014465,852.017212 317.391754,852.069458 
	C318.875488,851.444824 319.981934,850.767944 321.088379,850.091064 
	C321.088379,850.091064 320.996765,850.012329 321.470947,850.110962 
	C325.950897,850.828186 329.956665,851.446716 333.962402,852.065308 
	C333.962402,852.065308 333.993866,852.004456 334.019714,852.281128 
	C334.369507,852.591248 334.693420,852.624817 335.017334,852.658325 
	C335.155609,852.768555 335.293915,852.878784 335.795532,853.267395 
	C336.612061,853.852783 337.065247,854.159729 337.518463,854.466675 
	C337.518463,854.466675 337.565735,854.484619 337.657928,854.838257 
	C342.086243,861.731628 343.941925,868.490723 338.989014,875.523132 
	C334.215363,882.301086 335.708374,889.761047 336.400787,897.112183 
	C336.714661,900.444580 338.885529,901.929016 342.292084,901.506226 
	C343.230621,894.983521 344.888214,888.559082 344.881836,882.136230 
	C344.874878,875.112793 345.809296,868.718445 349.931793,862.960510 
	C350.254395,862.857971 350.576965,862.755432 351.347473,862.423218 
	C352.900513,861.497620 354.005615,860.801636 355.110718,860.105652 
	C355.110718,860.105652 355.009949,860.012573 355.455688,860.035767 
	C363.476166,857.077209 369.315125,860.627014 374.906281,865.109436 
	C374.906281,865.109436 374.951202,865.598755 375.052856,866.038818 
	C375.392609,866.693970 375.630707,866.909058 375.868774,867.124146 
	C375.868774,867.124146 376.000000,867.000000 375.920715,867.394409 
	C376.506012,868.904480 377.170563,870.020020 377.835144,871.135620 
	C377.835144,871.135620 377.997559,871.030457 377.865051,871.541626 
	C377.777618,877.666870 377.822693,883.281006 377.867737,888.895081 
	C377.867737,888.895081 377.975128,889.008789 377.609680,889.221619 
	C376.790588,901.249268 376.336914,913.064148 375.883240,924.878967 
	C375.883270,924.878967 375.969604,924.939697 375.610413,925.147339 
	C373.453461,937.200317 371.655701,949.045593 369.857941,960.890869 
	C369.857941,960.890869 369.983582,960.997742 369.639099,961.099854 
	C368.812531,962.411987 368.330475,963.622131 367.848450,964.832214 
	C367.848450,964.832214 367.898743,964.895081 367.569733,965.050110 
	C363.844025,970.395569 359.037323,973.472656 352.859924,972.756775 
	C349.144989,972.326233 345.613220,970.315308 341.999115,969.014648 
	C341.999115,969.014648 342.000519,968.995178 341.943237,968.741089 
	C341.590729,968.330078 341.295471,968.173157 341.000214,968.016235 
	C341.000214,968.016235 341.005615,967.997986 340.992889,967.658569 
	C340.029510,965.838684 339.078857,964.358154 338.128174,962.877625 
	C338.128174,962.877625 338.008575,962.998779 338.036163,962.538635 
	C337.749878,960.488525 336.991760,958.836670 337.202942,957.319763 
	C337.921051,952.162048 338.917419,947.039246 339.927856,941.926941 
	C341.073578,936.130249 339.705597,934.098145 333.900818,933.301819 
z"/>
<path fill="#FADE09" opacity="1.000000" stroke="none" 
	d="
M212.941376,921.040649 
	C213.910095,909.943665 216.338989,899.833496 222.075531,890.556702 
	C226.667694,883.130554 229.586945,874.487061 234.999634,867.801392 
	C240.613922,860.866882 245.142609,852.454102 255.994644,850.421509 
	C262.334473,849.234009 267.769928,846.946228 273.959259,850.462769 
	C279.709198,853.729858 282.004456,858.779114 281.963654,864.868103 
	C281.923523,870.862671 279.110229,875.684204 273.763275,878.760193 
	C272.759583,879.337585 271.701782,879.927368 270.592529,880.198120 
	C259.875824,882.812866 257.857147,892.219604 253.862518,900.429871 
	C254.984146,901.122681 255.574310,901.806824 256.056366,901.737671 
	C264.986603,900.456177 271.548737,906.026733 278.487366,909.928101 
	C281.360596,911.543518 284.051697,915.107605 284.933746,918.307129 
	C286.874634,925.346985 286.486572,932.483154 284.373840,939.799255 
	C280.857483,951.975891 272.501617,958.393616 260.931427,960.349121 
	C254.961044,961.358093 248.440521,960.062073 242.328827,958.937012 
	C238.516510,958.235107 234.783661,956.265442 231.425201,954.198486 
	C228.730637,952.540100 226.605011,949.927673 224.314407,947.650513 
	C221.868088,945.218628 218.442825,943.076843 217.363968,940.110535 
	C215.199142,934.158203 214.340347,927.730896 212.941376,921.040649 
z"/>
<path fill="#FADE0A" opacity="1.000000" stroke="none" 
	d="
M129.009216,862.510986 
	C131.730637,849.436096 144.737778,844.034058 155.174118,851.053223 
	C159.814301,854.173950 161.689835,858.916748 161.986435,864.252075 
	C162.235825,868.737671 162.095917,873.248596 162.027283,877.746765 
	C161.987930,880.325378 162.800644,881.942322 165.683990,881.903137 
	C168.427750,881.865784 169.484329,880.779541 170.116165,877.825562 
	C171.517242,871.275146 173.240051,864.688171 175.810013,858.523987 
	C178.192734,852.808899 187.305557,849.576416 193.449707,851.251160 
	C200.430206,853.153870 206.195496,859.835999 205.973297,866.866333 
	C205.622437,877.966919 204.966660,889.073669 203.952042,900.133118 
	C202.925385,911.323853 201.760696,922.540710 199.806061,933.595764 
	C198.158951,942.911499 187.599945,949.392883 179.575439,946.786316 
	C169.812759,943.615112 163.965622,933.606445 168.363220,923.976013 
	C169.438049,921.622070 168.856979,918.512024 169.086517,914.994934 
	C164.215240,914.994934 159.923355,915.246460 155.677963,914.910522 
	C152.619171,914.668457 148.840652,914.565430 146.748322,912.790894 
	C141.075638,907.979736 133.249405,905.340759 130.323181,897.617676 
	C129.641754,895.819275 129.082779,893.848145 129.057571,891.948608 
	C128.929291,882.285095 128.994934,872.618896 129.009216,862.510986 
z"/>
<path fill="#FADE09" opacity="1.000000" stroke="none" 
	d="
M775.449097,927.054443 
	C772.750977,914.664856 782.224792,905.139221 793.665466,905.895142 
	C799.597229,906.287170 800.676514,904.683167 801.033020,898.657532 
	C801.362183,893.095459 801.066162,887.239197 802.761353,882.075806 
	C805.259888,874.465881 813.301453,870.698181 820.687256,872.228699 
	C828.452942,873.837952 833.942261,880.366272 834.047180,888.570740 
	C834.104248,893.039917 833.804565,897.534058 833.335510,901.982117 
	C833.040222,904.782593 833.721008,906.125427 836.699646,905.934570 
	C841.497253,905.627014 846.325134,905.626526 851.095154,905.092834 
	C857.929077,904.328369 863.681274,906.236938 867.761414,911.743408 
	C871.989258,917.449219 872.295532,923.661255 868.695740,929.927979 
	C865.804382,934.961548 861.233582,937.403687 855.672852,937.942688 
	C849.896118,938.502747 844.087769,938.895691 838.287292,938.988770 
	C835.096191,939.039917 833.617493,939.969910 834.045593,943.306152 
	C834.612244,947.722656 834.727783,952.225037 835.643982,956.562317 
	C837.026611,963.107788 835.081177,968.596191 830.452148,972.830261 
	C826.107910,976.803833 820.567139,978.425110 814.728882,976.380737 
	C807.913269,973.994141 803.812866,969.114136 802.993713,961.787720 
	C802.263184,955.254700 801.806274,948.681763 800.764404,942.201050 
	C800.564941,940.960449 798.327271,939.430603 796.818542,939.142944 
	C793.441345,938.499023 789.788208,939.085022 786.507202,938.203430 
	C781.041260,936.734741 777.653137,932.639282 775.449097,927.054443 
z"/>
<path fill="#F9DE0A" opacity="1.000000" stroke="none" 
	d="
M708.656006,948.322876 
	C703.277527,935.518494 698.186279,922.996826 692.742249,910.630371 
	C690.514282,905.569397 686.330627,901.429810 686.906799,895.164551 
	C687.542358,888.253479 692.855225,881.948792 700.244019,880.228882 
	C706.678223,878.731201 714.383057,882.231995 717.447876,888.158752 
	C721.020569,895.067627 724.709473,901.928284 727.956726,908.989685 
	C730.563293,914.657898 732.577087,920.598083 734.883667,926.405762 
	C735.093628,926.934265 735.521118,927.376404 736.969910,927.725342 
	C736.969910,921.511108 736.696167,915.281128 737.054382,909.087585 
	C737.354614,903.894897 737.568604,898.446899 739.303650,893.648071 
	C741.695435,887.033020 750.243530,883.550171 757.177734,885.167114 
	C763.857971,886.724792 769.958069,893.861877 770.031982,900.558838 
	C770.136658,910.045593 770.878052,919.633606 769.777527,928.993774 
	C768.747620,937.753235 765.778442,946.301697 763.402710,954.870911 
	C762.958008,956.474731 761.559753,958.155701 760.135437,959.091492 
	C750.423035,965.472473 739.810608,968.714966 728.142761,966.831848 
	C725.659729,966.431091 722.889160,965.051392 721.165039,963.248718 
	C716.768494,958.651855 712.888184,953.561157 708.656006,948.322876 
z"/>
<path fill="#25B0D6" opacity="1.000000" stroke="none" 
	d="
M349.571869,862.928223 
	C345.809296,868.718445 344.874878,875.112793 344.881836,882.136230 
	C344.888214,888.559082 343.230621,894.983521 342.292084,901.506226 
	C338.885529,901.929016 336.714661,900.444580 336.400787,897.112183 
	C335.708374,889.761047 334.215363,882.301086 338.989014,875.523132 
	C343.941925,868.490723 342.086243,861.731628 337.663330,854.862976 
	C340.100189,857.473145 342.623840,860.412292 345.459534,863.714783 
	C346.066284,863.582397 347.639099,863.239136 349.571869,862.928223 
z"/>
<path fill="#25B0D6" opacity="1.000000" stroke="none" 
	d="
M370.236298,960.836060 
	C371.655701,949.045593 373.453461,937.200317 375.560120,925.131714 
	C374.378662,936.672424 372.892242,948.436951 371.369019,960.196716 
	C371.340027,960.420410 370.875824,960.587708 370.236298,960.836060 
z"/>
<path fill="#25B0D6" opacity="1.000000" stroke="none" 
	d="
M376.274139,924.808594 
	C376.336914,913.064148 376.790588,901.249268 377.561157,889.161987 
	C377.915955,899.673279 377.994659,910.457153 377.933014,921.240234 
	C377.926331,922.408630 377.107269,923.572388 376.274139,924.808594 
z"/>
<path fill="#25B0D6" opacity="1.000000" stroke="none" 
	d="
M303.754883,871.189453 
	C303.796539,875.701599 303.101288,880.279236 303.165070,884.846313 
	C303.263550,891.899048 303.881317,898.944641 304.215637,906.432739 
	C303.435913,905.778625 302.115692,904.694946 302.097443,903.589722 
	C301.935822,893.800903 301.966248,884.007874 302.065033,874.217346 
	C302.075043,873.224060 302.907379,872.239075 303.754883,871.189453 
z"/>
<path fill="#25B0D6" opacity="1.000000" stroke="none" 
	d="
M334.000854,933.640503 
	C339.705597,934.098145 341.073578,936.130249 339.927856,941.926941 
	C338.917419,947.039246 337.921051,952.162048 337.202942,957.319763 
	C336.991760,958.836670 337.749878,960.488525 338.100891,962.483093 
	C333.937042,958.562012 335.615387,953.482361 336.975311,948.905823 
	C338.861908,942.556824 338.373230,937.898499 334.000854,933.640503 
z"/>
<path fill="#25B0D6" opacity="1.000000" stroke="none" 
	d="
M342.036011,969.375000 
	C345.613220,970.315308 349.144989,972.326233 352.859924,972.756775 
	C359.037323,973.472656 363.844025,970.395569 367.530640,965.040405 
	C368.631439,969.793640 365.327820,971.379944 361.603363,972.918091 
	C354.969879,975.657837 346.456635,974.384521 342.036011,969.375000 
z"/>
<path fill="#25B0D6" opacity="1.000000" stroke="none" 
	d="
M316.732544,852.048096 
	C312.992035,858.331055 308.865082,864.550110 304.442566,870.948669 
	C304.147156,864.629028 311.560181,852.995911 316.732544,852.048096 
z"/>
<path fill="#25B0D6" opacity="1.000000" stroke="none" 
	d="
M374.951904,864.727783 
	C369.315125,860.627014 363.476166,857.077209 355.496887,860.090637 
	C357.323425,857.662903 364.690948,856.863770 369.029785,858.848450 
	C371.549744,860.001099 375.070160,860.292236 374.951904,864.727783 
z"/>
<path fill="#25B0D6" opacity="1.000000" stroke="none" 
	d="
M378.261353,888.825317 
	C377.822693,883.281006 377.777618,877.666870 377.784088,871.598267 
	C378.289154,871.311157 379.141663,871.486389 379.138580,871.644836 
	C379.026886,877.349426 378.835388,883.052307 378.261353,888.825317 
z"/>
<path fill="#25B0D6" opacity="1.000000" stroke="none" 
	d="
M304.070160,907.279663 
	C306.456757,911.671326 308.766998,916.471375 311.024567,921.639465 
	C310.113892,921.641296 308.711426,921.479431 308.485077,920.876282 
	C306.854309,916.530396 305.461823,912.095093 304.070160,907.279663 
z"/>
<path fill="#25B0D6" opacity="1.000000" stroke="none" 
	d="
M333.919189,851.705078 
	C329.956665,851.446716 325.950897,850.828186 321.511108,850.156616 
	C324.325653,846.619507 329.528381,847.124084 333.919189,851.705078 
z"/>
<path fill="#25B0D6" opacity="1.000000" stroke="none" 
	d="
M311.948242,923.484314 
	C315.597839,925.155029 319.240479,927.181702 323.016052,929.525879 
	C318.447876,929.644348 314.472198,928.091003 311.948242,923.484314 
z"/>
<path fill="#25B0D6" opacity="1.000000" stroke="none" 
	d="
M323.153748,930.194336 
	C325.870361,930.880554 328.595215,931.924866 331.670654,933.116394 
	C328.178436,935.267212 325.594238,933.158142 323.153748,930.194336 
z"/>
<path fill="#25B0D6" opacity="1.000000" stroke="none" 
	d="
M338.057220,963.277100 
	C339.078857,964.358154 340.029510,965.838684 340.983582,967.658264 
	C339.986755,966.557068 338.986481,965.116821 338.057220,963.277100 
z"/>
<path fill="#25B0D6" opacity="1.000000" stroke="none" 
	d="
M377.916626,870.760010 
	C377.170563,870.020020 376.506012,868.904480 375.854492,867.456055 
	C376.577728,868.210266 377.287903,869.297363 377.916626,870.760010 
z"/>
<path fill="#25B0D6" opacity="1.000000" stroke="none" 
	d="
M354.729889,860.045532 
	C354.005615,860.801636 352.900513,861.497620 351.459320,862.187866 
	C352.198517,861.449890 353.273804,860.717651 354.729889,860.045532 
z"/>
<path fill="#1A1B1C" opacity="1.000000" stroke="none" 
	d="
M355.951050,182.644012 
	C355.571136,181.255569 355.294189,179.461105 355.030914,177.259613 
	C355.381073,178.647705 355.717529,180.442856 355.951050,182.644012 
z"/>
<path fill="#25B0D6" opacity="1.000000" stroke="none" 
	d="
M368.213684,964.806396 
	C368.330475,963.622131 368.812531,962.411987 369.583252,961.039307 
	C369.440887,962.178040 369.009918,963.479248 368.213684,964.806396 
z"/>
<path fill="#25B0D6" opacity="1.000000" stroke="none" 
	d="
M320.711334,850.028137 
	C319.981934,850.767944 318.875488,851.444824 317.433502,852.126343 
	C318.176727,851.408997 319.255524,850.687134 320.711334,850.028137 
z"/>
<path fill="#25B0D6" opacity="1.000000" stroke="none" 
	d="
M337.508362,854.153198 
	C337.065247,854.159729 336.612061,853.852783 336.060577,853.278137 
	C336.474304,853.286865 336.986267,853.563293 337.508362,854.153198 
z"/>
<path fill="#25B0D6" opacity="1.000000" stroke="none" 
	d="
M375.879272,866.887878 
	C375.630707,866.909058 375.392609,866.693970 375.215759,866.222778 
	C375.596985,866.091492 375.801270,866.319824 375.879272,866.887878 
z"/>
<path fill="#1A1B1C" opacity="1.000000" stroke="none" 
	d="
M843.935059,760.767700 
	C843.738708,760.858093 843.613159,760.676147 843.542419,760.474915 
	C843.512756,760.390747 843.599487,760.265625 843.752808,760.038696 
	C843.924194,760.108154 843.976074,760.297913 843.935059,760.767700 
z"/>
<path fill="#25B0D6" opacity="1.000000" stroke="none" 
	d="
M311.023926,922.279785 
	C311.360046,922.042053 311.629059,922.210510 311.818604,922.790466 
	C311.483154,923.014465 311.222382,922.842407 311.023926,922.279785 
z"/>
<path fill="#25B0D6" opacity="1.000000" stroke="none" 
	d="
M334.905884,852.457825 
	C334.693420,852.624817 334.369507,852.591248 333.990540,852.299011 
	C334.261597,851.955078 334.547913,852.027405 334.905884,852.457825 
z"/>
<path fill="#25B0D6" opacity="1.000000" stroke="none" 
	d="
M341.054626,968.270020 
	C341.295471,968.173157 341.590729,968.330078 341.934082,968.744934 
	C341.691101,968.843140 341.400055,968.683472 341.054626,968.270020 
z"/>
<path fill="#1B1B1B" opacity="1.000000" stroke="none" 
	d="
M277.544739,584.928711 
	C277.253693,577.228027 277.459442,569.885437 276.928467,562.596558 
	C275.917175,548.714050 274.579529,534.852661 273.200256,521.000183 
	C271.919128,508.133606 270.422516,495.288269 268.975952,482.438599 
	C268.811035,480.973450 268.540131,479.469208 268.006256,478.105255 
	C265.450928,471.576996 267.262787,465.752136 271.683075,461.045471 
	C275.871063,456.586182 281.526917,454.698334 287.675140,456.504120 
	C294.492737,458.506531 298.981110,463.216034 299.876282,470.261658 
	C303.110291,495.714783 306.344299,521.176331 308.915070,546.701477 
	C310.077667,558.245056 309.864288,569.944641 309.923889,581.575256 
	C309.959351,588.488953 303.900970,595.184387 296.908905,596.803284 
	C290.311432,598.330811 282.427856,594.615601 279.233185,588.459656 
	C278.696289,587.425110 278.215576,586.361389 277.544739,584.928711 
z"/>
<path fill="#1B1B1B" opacity="1.000000" stroke="none" 
	d="
M763.525757,500.350220 
	C772.217957,508.616272 772.137085,518.816223 763.628418,526.643372 
	C763.384644,526.867615 762.962830,526.986206 762.848694,527.250854 
	C759.196777,535.722900 751.989319,538.055054 743.609192,540.015869 
	C733.455383,542.391724 724.661316,538.720337 721.448181,528.720215 
	C718.796570,520.467773 724.952087,510.620728 734.213013,508.116394 
	C735.860168,507.670959 737.908264,507.128052 738.853027,505.915009 
	C746.469116,496.136902 752.525085,494.614044 763.525757,500.350220 
z"/>
</svg>